<svg xmlns="http://www.w3.org/2000/svg" clip-rule="evenodd" fill-rule="evenodd" height="512" stroke-linejoin="round" stroke-miterlimit="2" viewBox="0 0 24 24" width="512"><g id="Icon"><path d="m2 9.25h6c.414 0 .75-.336.75-.75s-.336-.75-.75-.75h-6c-.414 0-.75.336-.75.75s.336.75.75.75z"></path><path d="m6.217 8h3.46c.048.158.073.326.073.5 0 .966-.784 1.75-1.75 1.75h-2.575c-.082.407-.137.824-.161 1.25h5.413c.048.158.073.326.073.5 0 .966-.784 1.75-1.75 1.75h-3.575c.088.429.206.846.354 1.25h5.898c.048.158.073.326.073.5 0 .966-.784 1.75-1.75 1.75h-2.999c1.597 2.125 4.139 3.5 6.999 3.5 4.829 0 8.75-3.921 8.75-8.75s-3.921-8.75-8.75-8.75c-3.388 0-6.329 1.93-7.783 4.75zm6.633-.4v4c0 .199.079.39.22.53l3.2 3.2c.292.293.768.293 1.06 0 .293-.292.293-.768 0-1.06l-2.98-2.981v-3.689c0-.414-.336-.75-.75-.75s-.75.336-.75.75z"></path><path d="m3 12.75h6c.414 0 .75-.336.75-.75s-.336-.75-.75-.75h-6c-.414 0-.75.336-.75.75s.336.75.75.75z"></path><path d="m4 16.25h6c.414 0 .75-.336.75-.75s-.336-.75-.75-.75h-6c-.414 0-.75.336-.75.75s.336.75.75.75z"></path></g></svg>