<svg xmlns="http://www.w3.org/2000/svg" height="512" viewBox="0 0 192 192" width="512" fill="#ff9f1c"><circle cx="96" cy="72" r="24"></circle><path d="m64 120v16a8 8 0 0 0 8 8h48a8 8 0 0 0 8-8v-16a24.027 24.027 0 0 0 -24-24h-16a24.027 24.027 0 0 0 -24 24z"></path><path d="m96 16a79.661 79.661 0 0 1 64.028 32h-16.028v16h32a8 8 0 0 0 7.761-6.06l8-32-15.522-3.88-3.917 15.669a96.02 96.02 0 0 0 -172.322 58.271h16a80.091 80.091 0 0 1 80-80z"></path><path d="m176 96a80.019 80.019 0 0 1 -144.028 48h16.028v-16h-32a8 8 0 0 0 -7.761 6.06l-8 32 15.522 3.88 3.917-15.669a96.02 96.02 0 0 0 172.322-58.271z"></path></svg>