<svg xmlns="http://www.w3.org/2000/svg" id="Capa_1" height="512" viewBox="0 0 512.015 512.015" width="512"><g><g id="Layer_2_35_"><g id="Solid_34_"><path d="m186.475 190.555h-14.934l-8.889 8.889h-10.608v-11.852h26.668c2.862.006 5.623 1.061 7.763 2.963z"></path><path d="m190.564 220.186v14.815c-.018 1.002-.154 1.997-.415 2.963h-16.119l-3.911-3.911c1.665-1.108 2.667-2.975 2.667-4.978v-8.889z"></path><path d="m190.564 199.444v14.815h-17.778v-8.889c0-2.003-1.002-3.87-2.667-4.978l3.911-3.911h16.119c.261.966.397 1.962.415 2.963z"></path><path d="m146.118 187.592v11.852h-10.608l-8.889-8.889h-14.934c2.139-1.902 4.901-2.957 7.763-2.963z"></path><path d="m128.043 200.375c-1.665 1.108-2.667 2.975-2.667 4.978v8.889h-17.778v-14.798c.018-1.002.154-1.997.415-2.963h16.119z"></path><path d="m186.475 243.89c-2.139 1.902-4.901 2.957-7.763 2.963h-26.668v-11.852h10.608l8.889 8.889z"></path><path d="m128.043 234.035-3.911 3.911h-16.119c-.261-.966-.397-1.962-.415-2.963v-14.798h17.778v8.889c.006 1.998 1.008 3.853 2.667 4.961z"></path><path d="m146.118 235.001v11.852h-26.668c-2.862-.006-5.624-1.061-7.763-2.963h14.934l8.889-8.889z"></path><path d="m403.904 300.188v17.778h47.409v-41.601c-13.221-9.754-31.847-6.94-41.601 6.282-3.751 5.079-5.784 11.224-5.808 17.541zm23.705-142.227h-331.863c-13.091 0-23.705 10.614-23.705 23.705v183.71c0 13.091 10.614 23.705 23.705 23.705h248.898v-35.557c.006-12.676 6.785-24.38 17.778-30.697v-22.638c.533-39.053 32.06-70.58 71.114-71.114 6.003 0 11.983.8 17.778 2.37v-49.779c0-13.091-10.614-23.705-23.705-23.705zm-242.971 189.636h-77.04c-3.271 0-5.926-2.655-5.926-5.926s2.655-5.926 5.926-5.926h77.04c3.271 0 5.926 2.655 5.926 5.926 0 3.272-2.655 5.926-5.926 5.926zm-82.966-41.482c0-3.271 2.655-5.926 5.926-5.926h35.557c3.271 0 5.926 2.655 5.926 5.926s-2.655 5.926-5.926 5.926h-35.557c-3.271 0-5.926-2.655-5.926-5.926zm100.744-65.188c-.03 9.808-7.971 17.749-17.778 17.778h-71.114c-9.808-.03-17.749-7.971-17.778-17.778v-47.409c.03-9.808 7.971-17.749 17.778-17.778h71.114c9.808.03 17.749 7.971 17.778 17.778z"></path><path d="m137.229 203.871h23.705c3.271 0 5.926 2.655 5.926 5.926v14.815c0 3.271-2.655 5.926-5.926 5.926h-23.705c-3.271 0-5.926-2.655-5.926-5.926v-14.815c-.001-3.271 2.654-5.926 5.926-5.926z"></path><path d="m374.155 95.897-150.405 50.212h-128.004c-19.639 0-35.557 15.918-35.557 35.557v19.023l-51.439 17.185-7.526-22.519c-4.142-12.421 2.572-25.844 14.987-29.986h.006l320.426-106.925c12.403-4.148 25.82 2.536 29.986 14.934z"></path><path d="m60.248 372.055-29.868-89.366 29.808-9.956v98.569c-.005.255.013.504.06.753z"></path><path d="m12.484 229.057 47.705-15.941v47.113l-33.542 11.2z"></path><path d="m390.867 146.091h-129.664l116.686-38.934z"></path><path d="m492.796 330.258v-30.069c0-32.73-26.531-59.261-59.261-59.261s-59.261 26.531-59.261 59.261v30.472c-10.448 2.673-17.761 12.077-17.778 22.863v77.573c0 13.091 10.614 23.705 23.705 23.705h108.11c13.091 0 23.704-10.614 23.704-23.705v-77.573c-.006-11.361-8.066-21.115-19.219-23.266zm-59.261-71.552c22.662-.249 41.234 17.927 41.483 40.588.006.296.006.599 0 .895v29.631h-82.966v-29.631c-.243-22.667 17.932-41.24 40.6-41.483.296-.006.587-.006.883 0zm.711 168.835c-8.065-.024-14.59-6.572-14.578-14.638-.012-4.723 2.021-9.215 5.571-12.326v-15.763h18.033v16.593c3.562 2.75 5.642 6.999 5.63 11.497-.024 8.077-6.578 14.614-14.655 14.62v.017z"></path></g></g></g></svg>